<svg width="144" height="144" viewBox="0 0 144 144" fill="none" xmlns="http://www.w3.org/2000/svg">
  <!-- 方形白色背景 -->
  <rect width="144" height="144" fill="white"/>
  
  <!-- 衣服填充部分 -->
  <path d="M35 90L55 40H89L109 90H98L94 124H50L46 124H35V90Z" 
        fill="black" 
        fill-opacity="0.05"/>
  
  <!-- 衣服主轮廓 -->
  <path d="M35 90L55 40H89L109 90H98L94 124H50L46 124H35V90Z" 
        stroke="black" 
        stroke-width="5" 
        stroke-linejoin="round"/>
  
  <!-- 衣领 - 填充 -->
  <path d="M55 40L72 65L89 40" 
        fill="black" 
        fill-opacity="0.1"/>
  
  <!-- 衣领 - 线条 -->
  <path d="M55 40L72 65L89 40" 
        stroke="black" 
        stroke-width="5" 
        stroke-linecap="round" 
        stroke-linejoin="round"/>
  
  <!-- 口袋 - 填充 -->
  <path d="M62 97C62 95.3431 63.3431 94 65 94H79C80.6569 94 82 95.3431 82 97V110C82 111.657 80.6569 113 79 113H65C63.3431 113 62 111.657 62 110V97Z" 
        fill="black"/>
  
  <!-- 设计线条装饰 -->
  <line x1="46" y1="102" x2="58" y2="102" stroke="black" stroke-width="4" stroke-linecap="round"/>
  <line x1="86" y1="102" x2="98" y2="102" stroke="black" stroke-width="4" stroke-linecap="round"/>
</svg>